<?xml version="1.0" encoding="UTF-8"?>
<svg id="Layer_1" data-name="Layer 1" xmlns="http://www.w3.org/2000/svg" viewBox="0 0 315.07 80.08">
  <defs>
    <style>
      .cls-1, .cls-2 {
        fill: #000;
        stroke: #000;
        stroke-width: 1.5px;
      }

      .cls-2 {
        stroke-miterlimit: 10;
      }
    </style>
  </defs>
  <path class="cls-2" d="M75.79,5.18c-4.41.22-7.75,2.65-11.55,5.37-.42.26-.78.27-1.14-.03-3.6-3.68-9.13-5.55-15.01-5.51-1.11-.08-1.24-1.53-1.93-2.17-1.26-1.63-3.42-2.19-5.4-1.86-4.25.64-7.69,3.45-10.08,7.83-.3.48-.7.82-1.19,1.07-9.96,5.3-18.04,14.68-18.41,26.61-.46,4.86,2.83,9.83,8.08,9.6,5.47-.16,9.73-2.54,14.11-6.55.25-.22.62-.55.93-.51.47.06.96.62,1.55.96.65.58,2.43.92,1.51,1.99-6.65,7.72-13.01,13.31-19.91,16.3-1.88.61-4.04-.57-5.88-.7-3-.41-5.97-1.26-8.83-.09-2.07.87-2.42,3.16-.35,3.92,4.54,1.3,9.68-.19,13.89-.75,5.56.6,11.43,1.36,17.04,1.21,24.44-1.13,42.47-28.57,32.32-48.06-.36-.53-.15-1.12.3-1.57,3.73-3.76,7.09-5.8,9.65-5.91.81.05.88,1.21,1.62,1.69,1.57,1.32,3.07-.71,1.69-1.99-.52-.56-1.88-.83-2.85-.86h-.18ZM5.13,60.74c-.42.06-4.2-.44-2.68-1.01,2.5-.4,5.29.13,7.92.26.33.03.67.05.99.1.04.03-.29.07-.44.1-1.82.34-3.79.55-5.63.55h-.15ZM42.02,2.26c1.76-.24,3.8.7,4.13,2.66-3.7.62-7.69,1.16-11.26,2.61-.46.15-1.04.43-1.45.56-.11.02-.09-.08.03-.26,2.29-3.19,5.14-5.12,8.39-5.55l.15-.02ZM18.87,45.07c-3.24.05-4.33-3.52-4.17-6.24.13-9.54,5.03-18.45,13.45-24.95.45-.35.66-.36.5.25-2.14,7.42-.97,18.72,4.11,23.37.33.32.27.65-.04.98-4.45,4.33-8.95,6.54-13.7,6.59h-.16ZM33.89,37.16c-6.2-4.76-6.14-17.26-2.98-24.52.17-.43.44-.78.83-1.05,4.36-2.8,9.29-4.6,14.05-5.19.58-.09.84.19.84.84.41,8.68-4.8,21.21-12.64,29.88l-.1.04ZM34.87,38c8.07-9.35,13.73-21.61,12.81-31.4.07-.34.32-.37.72-.37,5.4-.18,10.54,1.75,13.27,5.55.3.37.34.75-.06,1.08-7.52,6.41-15.87,19.12-22.67,27.13-.46.59-.97.34-1.57-.04-.81-.53-2.07-1.09-2.51-1.84v-.11ZM32,60.87c-3.92-.09-8.11-.47-11.76-1.43,14.33-5.72,25.46-20.18,38.51-38.96,1.38-1.89,2.74-3.7,4.16-5.21.37-.38.67-.28.86.31,6.23,18.71-10.28,44.81-31.6,45.29h-.18Z"/>
  <g>
    <path class="cls-2" d="M107.4,32.01c.05.59.18,1.3.59,1.75.41.4.86.85.77,1.36-.71,2.18-13.54,21.57-20.44,21.42-.02-.77,1.13-2.71,3.88-6.92,2.91-4.56,7.98-10.51,7.88-15.7-.01-.89-.26-2.01-.88-2.7-.81-1-2.86-1.52-3.83-.83-3.19,2.12-8.61,9.16-11.59,13.08-5.18,6.76-13.96,13.58-18.3,13.84-1.48-.46-.13-3.06.35-4.61,1.1-2.72,2.62-5.58,4.31-8.25.21-.29.47-.64.77-.81,4.42-1.13,9.31-3.07,12.3-6.75,3.12-3.56,2.76-7.2-1.4-6.77-9.31.7-19.8,15.76-19.49,23.81.03,1.93,1.13,4.99,3.58,4.51,5.1-.67,14.29-8.21,19.26-15.04,2.63-3.55,8.16-10.69,10.77-12.09,3.4-.75.15,5.62-1.16,7.64-2.21,4.09-12.13,15.34-7.14,18.67,5.87,2.77,28.42-25.35,23.27-28.32-1.6-1.1-3.48.75-3.49,2.53v.18ZM73.19,39.7c2.21-2.83,5.9-8.46,9.49-8.49,1.22.73.42,2.57-.13,3.8-1.53,3.07-4.59,5.2-7.8,6.35-1,.37-2.17.77-3.16.92-.16,0-.06-.19.11-.42.42-.64.98-1.5,1.42-2.05l.08-.11Z"/>
    <path class="cls-2" d="M154.39,40.51c-.47-1.61-2.32-.68-2.25.74.02.63.16,1.08-.19,1.61-1.69,2.48-3.62,4.86-5.38,6.84-1,1.38-8.78,8.86-6.76,4.04,2-3.68,4.5-6.89,7.16-10.91,2.77-4.39,4.97-8.04,3.63-11.89-.71-1.6-2.64-2.38-4.25-1.83-3.09,1.22-4.65,3.85-7.1,6.44-.04-.34.57-1.9.48-2.56.19-2.32-1.54-4.66-4-3.57-3.17,1.74-7.74,9.73-9.93,12.04-.59.55-1.45,1.66-2.3,1.77-.68.03-1-.71-.81-1.37,1.13-2.53,2.95-5.67,3.02-8.08.28-2.62-1.78-4.61-4.43-4.11-8.6,1.17-19.03,16.12-18.25,24.2.12,1.65,1.33,4.29,3.43,3.89,2.88-.23,8.37-5.19,12.43-10.36.8-.74,1.93-.56,2.85-1.04,1.66-.71,3.59-2.62,5.26-4.53.18-.21.35-.44.44-.56.31-.41-.32.44.17-.12,3.88-4.37,7.89-10.91,8.7-10.76.17.05.3.6.25.96-.44,3.41-7.88,15.58-10.84,20.55-1.53,2.53-2.65,4.35-2.83,4.74.06.57.67.67,1.33.51,1.16-.39,2.78.23,3.47-.97,4.42-6.82,12.52-21.96,18.12-25.63,5.95-2.12-.68,8.05-2.02,9.82-3.52,5.52-8.7,11.86-6.13,15.66,1,1.08,2.08.83,3.27.04,3.92-2.7,7.97-7.46,10.97-11.14,1.41-2,2.57-2.89,2.52-4.27l-.03-.15ZM121.05,40.32c-3.34-.67-5.55,4-4.01,6.23.35,1.52-1.77,2.89-2.56,4.03-1.08,1.35-8.74,8.64-8.99,5.04-.68-3.58,15.26-32.99,19.16-22.74.13,1.91-.8,3.78-1.72,5.68-.51.97-.91,1.91-1.74,1.77l-.15-.02Z"/>
  </g>
  <path class="cls-1" d="M254.42,7.14c-8.5-4.33-25.07,11.9-33.89,24-.62,1.08-1.84.98-2.9,1.01-1.81.09-4.7.16-6.7.15-.49-.04-1.32.11-1.76-.11-.01-.04-.04-.12-.05-.16.35-.74.91-1.46,1.37-2.24,4.08-6.75,13.38-19.32,20.08-21.54,1.39-.55.89-.96.34-1.23-.44-.12-2.03,1.3-2.67,1.52-1.88.78-5.11,3.33-10.41,9.25-1.71,1.91-3.09,3.57-4.83,5.79-2.17,2.72-4.19,5.72-6.37,8.44-.44.35-1.27.15-1.82.19-1.02.03-4.29.03-4.78,0,.2-.74.32-1.46.36-2.15.47-5.75-5.37-7.78-10.37-7.46-3.74.08-7.41.79-10.97,2.12-1.8.67-1.97-4.48-1.75-5.53.46-7.24,9.68-14.5,22.57-14.06,9.36,0,17.72,3.25,26.74,3.43,1.8.03,4.04-.08,5.65-.9,1.36-1.07-.11-2.5-1.5-1.85-1.27.57-2.69,1.76-4.14,1.57-8.58-.26-16.44-4.65-25.61-4.97-14.65-.91-24.52,8.99-25.01,16.8-.18,1.47-.07,3.14.32,4.62.1.65.62,1.3.21,1.86-11.11,5.62-18.86,16.49-18.73,25.56.07,6.3,5.84,10.66,11.95,10.71,14.14.15,26.3-11.77,37.73-27.69.69-1.26,2.27-.67,3.46-.79,2.08,0,4.85-.02,6.98.06.55-.02.68.18.4.68-3.16,4.78-5.83,9.63-7.43,13.77-2.74,6.43-4.11,16.21,5.18,16.15l.15-.02c.44-.06.82-.46.56-.8-.1-.06-.29-.2-.39-.27-1.45-.47-2.85-.99-3.44-2.54-3.02-14.28,27.56-53.13,39.07-53.16.31.02.51.36.65.88.15.59.55,1.04,1.08,1.02,1.1,0,1.28-1.45.67-2.11ZM179.88,25.62c5.01-1.72,14.37-3.67,18.39.57,1.14,1.84,1.25,3.89.59,5.94-6.72-.48-16.94-2.14-19.45-5.63-.37-.43.07-.74.47-.88ZM171.69,57.89c-21.27-.53-10.03-23.98,4.72-30.79.57-.35,1.16-.27,1.58.27,2.85,3.78,13.48,5.31,20.5,5.74-2.72,6.24-12.12,12.2-20.37,12.03-1.76-.05-3.91.19-5.28-.99-.34-.28-.41-.83-.65-1.07-.23-.28-.67-.08-.83.32-.4,3.5,4.45,4.42,7.24,4.31,10.1-.22,18.71-7.8,21.12-14.53.42.02,4.35.14,5.38.49-8.75,12.76-21.51,23.72-33.41,24.22Z"/>
  <path class="cls-1" d="M309.46,39.31c.04,1.03,1.06,1.25.33,2.2-3.92,5.8-9.06,11.4-12.69,12.68-.65.23-.07-.6.13-.89,4.12-6.1,8.28-12.64,11.93-18.53,2.15-3.51,3.96-6.25,4.76-7.91.31-.66-.86-.26-1.36.22-.7.61-1.98,1.33-2.66.42-.17-.22-.31-.32-.51-.13-3.12,4.82-5.99,10-9.22,14.71-4.16,5.99-16.23,18.82-12.88,9.36,2.27-5.44,6.11-10.81,9.44-15.83,1.95-2.88,3.86-5.52,5.09-7.55.11-.19.2-.56-.05-.67-.32-.18-.94.33-1.51.71-.6.35-1.24.55-1.69.5-.31-.03-.52-.19-.62-.44-.17-.48-.25-.35-.47-.04-2.46,3.65-6.75,9.28-9.79,14.27-3.72,5.68-10.24,12.59-12.38,12.71-.21.01-.31-.09-.28-.27.11-1.24,4.29-7.58,7.72-12.78,3.57-5.58,17.03-26.82,20.45-32.52.07-.13.04-.33-.09-.42-.57-.21-1.1.56-1.55.94-.85.67-1.84,1.43-2.73.93-.22-.18-.34-.37-.46-.29-2.7,3.84-9.25,14.93-14.09,21.64-.08-2.38-1.33-4.05-4.01-3.82-5.34.37-10.62,5.29-14.21,10.98-3.42,5.58-12.39,17.27-14.78,16.14-.73-6.31,7.7-15.02,11.42-20.95.86-1.45,2.31-3.88.68-5.1-2.5-1.02-5.26,1.25-8,1.35-.18-.03-.37-.1-.28-.36.49-1.19,1.43-2.95.73-4.32-.49-1.01-2.01-.86-2.28.25-.41,1.64.42,3.13-.19,4.8-.9,2.06-1.71,3.13-3.88,6.64-3.83,6.71-13.37,17.98-17.09,18.58-.21.03-.36,0-.37-.2,1.02-3.1,4.76-8.17,7.15-11.98,3.17-4.99,6.78-10.33,9.82-15.32.42-.69-.34-.63-.76-.3-.92.79-2.84,2.22-3.54.54-.06-.08-.11-.07-.19.04-.57.86-3.07,4.72-3.64,5.58l-.08.09s-.02-.05,0-.15c.03-.21.11-.61.13-.97.26-2.52-1.67-4.25-4.12-3.87-9.53.85-19.05,16.23-18.26,24.21,1.35,8.57,7.52,1.53,12.42-3.63.08-.05.1-.01.07.1-.39,1.07-1.1,2.61-1.11,3.77.64,9.83,13.57-5.17,18.26-12.42,2.24-3.22,4.24-6.95,6.12-9.65.36-.2,1.15-.2,1.68-.31,2.41-.27,3.81-1.22,4.23-.83-1.7,2.77-5.06,5.94-7.39,9.78-2.45,3.75-5,8.93-4.8,11.88,1.55,10.33,10.65-1.19,14.23-5.75.19-.22.39-.43.32-.05-.17.68-.43,1.61-.54,2.34-.95,4.82,1.14,10.34,6.5,5.35,1.49-1.1,3.41-3.32,5.21-4.99.15,0-.29.9-.45,1.44-.17.52-.27,1-.32,1.43-.24,1.41.51,3.62,2.17,3.63,2.58-.05,5.94-3.99,9.4-7.7.18-.05-.12.66-.23,1.28-.73,3.12.23,6.42,2.93,6.19,1.9-.16,4.61-2.7,7.52-5.67.27-.28.45-.46.46-.44-.69,1.14-2.41,3.73-3.05,4.72-.21.34-.44.47-.94.66-5.7,2.06-11.74,7.9-15.43,13.21-3.67,5.24-5.09,9.98-1.91,10.09,6.03-.29,12.59-9.92,20.7-21.36.53-.7.91-1.63,1.78-1.72,4.8-.96,15.78-13.3,16.43-16.4.22-2.23-3.17-2.13-3.32-.02v.17ZM221.45,57.02c-1.29-1.47,1.19-6.67,2.87-10.23,2.65-5,8.77-16.42,14.56-15.25,5.5,3.41-13.82,25.73-17.34,25.51l-.09-.03ZM264.71,55.6c-1.35-1.33,1.15-6.68,2.85-10.24,3.01-5.52,7.6-14.42,13.5-15.41,3.6.01,1.69,4.72.61,6.68-1.73,2.7-3.4,5.38-5.27,7.98-4.55,5.93-9.79,10.97-11.62,11l-.08-.02ZM273.31,77.28c-2.71-.44,7.06-16.58,17.21-20.54.15.03-.08.34-.28.62-.37.54-.76,1.1-1.13,1.63-2.8,4.05-6.54,9.2-9.46,12.67-2.99,3.58-5.22,5.58-6.3,5.62h-.05Z"/>
</svg>