<?xml version="1.0" encoding="UTF-8"?>
<svg id="Layer_1" data-name="Layer 1" xmlns="http://www.w3.org/2000/svg" viewBox="0 0 208.95 155.5">
  <defs>
    <style>
      .cls-1 {
        fill: #000;
        stroke: #000;
        stroke-linecap: round;
        stroke-linejoin: round;
        stroke-width: 1.5px;
      }
    </style>
  </defs>
  <g>
    <path class="cls-1" d="M93.75,5.98c2.84,0,4.55.9,4.55,2.59,0,.9-.57,1.49-1.42,1.49-1.23,0-2.46-1.2-2.75-2.69h-.38c-3.41,0-8.05,2.79-13.26,8.17,2.75,4.08,4.26,9.36,4.26,15.14,0,19.82-18.85,44.32-45.18,44.31-6.44,0-13.64-.8-20.27-1.59-3.98,1.09-8.43,1.59-13.26,1.59-3.22,0-5.3-1-5.3-2.69,0-1.89,2.56-3.39,5.59-3.39,3.98,0,8.71,1,13.92,2.09,13.64-5.38,25.38-18.62,39.68-37.64,5.78-7.67,11.37-13.94,16.67-18.52-3.32-4.88-8.81-7.47-16.1-7.47h-1.71c.19.9.28,1.99.28,3.19,0,9.96-6.53,25.29-16.1,35.35.47.4,4.29,2.32,5.14,2.82l-.57,1.1c-.76-.4-4.76-2.42-5.52-3.02-5.97,5.88-12.41,8.96-18.75,8.96-5.78,0-9.85-4.38-9.85-10.65,0-15.44,10.8-27.49,23.96-33.96,3.03-5.98,7.67-9.66,13.35-10.36,3.79-.4,6.44,1.39,7.77,4.98h1.04c7.96,0,14.59,2.49,19.13,7.37,5.78-4.58,11.18-7.17,15.06-7.17h0ZM6.15,73.6c2.65,0,5.21-.3,7.67-.8-3.69-.3-7.01-.6-9.75-.6-1.14,0-1.8.3-1.8.5,0,.3,1.8.9,3.88.9ZM40.81,45.82c-4.36-3.78-6.91-10.76-6.91-18.92,0-3.68.57-7.27,1.52-10.76-10.99,7.97-17.33,19.22-17.33,31.17,0,4.58,1.9,7.07,5.21,7.07,5.87,0,11.84-2.89,17.52-8.56ZM80.5,28.99c0-4.08-.76-7.97-2.18-11.15-2.08,2.09-4.07,4.68-6.06,7.37-16.76,23.4-29.64,40.13-47.64,46.71,4.83.9,9.94,1.69,15.06,1.69,23.11,0,40.82-25.2,40.82-44.62h0ZM41.76,44.92c9.47-9.96,15.91-25.49,15.91-34.86,0-1-.09-1.79-.19-2.59-6.44.6-13.16,2.99-19.04,6.77-1.99,4.28-3.03,9.26-3.03,14.04,0,7.27,2.27,13.25,6.35,16.63h0ZM41.09,9.57c5.02-2.09,10.61-3.39,15.91-3.78-.85-2.49-2.65-3.59-5.3-3.29-4.07.5-7.77,2.99-10.61,7.07Z"/>
    <path class="cls-1" d="M105.68,51.89c-6.06,8.96-19.89,19.82-26.52,19.82-3.03,0-3.6-4.38-3.6-5.78,0-10.06,13.83-28.28,25.48-28.28,6.82,0,3.6,8.37-5.21,12.95-2.94,1.59-6.53,2.69-9.57,3.09-4.55,6.57-7.67,13.15-7.67,15.74,0,.7.19.9.57.9,5.68,0,18.56-9.56,24.91-18.42h1.61ZM89.49,49.1c-.85,1-1.52,2.09-2.27,3.09,2.56-.4,5.59-1.49,8.05-2.79,6.53-3.68,8.24-10.46,5.78-10.46s-6.63,3.58-11.55,10.16Z"/>
    <path class="cls-1" d="M118.28,37.95c3.03,0,4.74,1.69,4.74,4.68s-1.61,7.07-4.55,11.15c-8.05,10.95-10.7,15.04-10.7,16.23q0,.1.09.1c8.43,0,25.95-24.1,25.95-25.89,0-1.59-1.71-.6-1.71-3.68,0-3.88,5.49-5.48,5.49-.5s-20.46,31.47-29.64,31.47c-1.61,0-2.75-1.49-2.75-3.58,0-3.78,4.45-9.96,9.19-16.53,3.79-4.98,7.48-12.05,3.98-12.05-2.46,0-7.29,4.88-13.35,13.54h-1.7c7.29-10.16,12.03-14.94,14.96-14.94h0Z"/>
    <path class="cls-1" d="M160.61,51.89c-3.5,4.78-6.82,6.97-10.8,7.17-6.06,7.57-12.88,12.85-16.57,12.85-3.13,0-3.69-4.38-3.69-5.78,0-9.86,13.73-28.08,24.34-28.08,2.75,0,4.45,1.79,4.45,4.58,0,3.49-2.75,8.96-7.2,14.84,2.65-.5,5.3-2.39,7.86-5.58h1.61ZM133.15,70.52c3.13,0,9-4.68,14.77-11.65-3.03-1.49-.66-7.97,3.6-7.97.66,0,1.23.3,1.61.7,2.56-3.98,3.88-7.17,3.88-9.16s-1.14-2.99-3.03-2.99c-6.82,0-21.4,24.1-21.4,30.17,0,.6.19.9.57.9h0Z"/>
    <path class="cls-1" d="M194.51,51.89c-6.16,9.06-16.01,19.62-20.08,19.62-1.61,0-2.75-1.49-2.75-3.59,0-3.78,4.26-9.96,9.09-16.53,2.65-3.49,5.59-8.17,5.59-10.65,0-1-.38-1.39-1.33-1.39-.47,0-1.23.2-1.71.4-6.72,3.88-19.13,25.1-24.15,32.17.1-.9-3.5-.9-4.45-.2l-.57-.7c9.85-15.73,17.71-26.39,17.71-30.77,0-.7-.09-.9-.19-.9-1.04,0-5.49,4.98-11.84,13.54h-1.61c6.63-9.16,11.27-14.44,13.16-14.94.28-.1.47-.1.85-.1,2.18,0,3.5,1.69,3.5,4.38,0,1.19-.38,2.59-1.04,3.98,2.94-3.49,5.68-6.37,7.95-7.57.95-.6,1.8-.8,2.65-.8,2.56,0,4.45,1.99,4.45,4.78s-1.7,6.97-4.64,11.15c-5.78,7.97-10.89,14.64-10.89,16.23q0,.1.09.1c3.13,0,11.84-8.56,18.47-18.22h1.71Z"/>
  </g>
  <g>
    <path class="cls-1" d="M128.65,66.52c2.08,0,3.31.9,3.31,2.49,0,1.89-1.21,1.57-1.21-.22,0-.9-1.72-.97-2.2-.97-14.87,0-49.15,47.4-49.15,64.83,0,4.48,1.14,5.98,4.74,5.98,2.46,0,8.52-1.3,9.28-7.47l.95-.1c.19.7.28,1.2.28,1.89,0,4.18-4.55,7.17-10.61,7.17s-9.28-3.19-9.28-9.16c0-7.07,4.64-18.12,12.41-29.78h-.76c-1.71-.1-5.21.04-8.52.04h-1.8c-14.11,20.61-32.2,36.11-49.25,36.11-8.81,0-15.44-5.97-15.44-13.94,0-10.86,9.28-25.59,23.77-32.27-.95-2.29-1.42-4.88-1.23-7.47.76-9.56,9.85-22.11,29.83-22.11,12.31,0,25.79,6.37,37.25,6.37,1.04,0,3.6-1.89,4.45-2.19,1.89-.7,3.22,1.39,1.7,2.49-.47.3-2.56,1.2-6.16,1.2-11.65,0-25.32-4.38-37.44-4.38-18.75,0-27.28,9.46-28.03,18.62-.19,2.39.28,4.58,1.33,6.67,5.02-2.09,10.23-3.09,15.53-3.09,7.67,0,11.93,3.19,11.93,8.96,0,9.36-12.6,23-27.66,23-5.49,0-9.28-2.49-8.43-5.97l1.14-.4c-.19,3.29,4.36,3.09,7.2,3.09,14.59,0,26.42-11.95,26.42-20.12,0-4.58-3.79-7.17-10.61-7.17-5.3,0-10.23,1.09-14.68,2.89,2.65,3.98,7.7,5.6,14.17,7.27,3.15.81,9.01,1.04,11.56.54v1.19c-3.41,1-8.98.69-13.43-.12-4.45-.81-11.46-3.31-14.21-8.09-13.26,6.27-21.88,19.12-21.88,28.58,0,6.37,5.87,11.25,13.64,11.25,15.72,0,30.59-14.2,43.09-30.93,0,0-5.7.06-6.93.06-.66,0-1.23-.3-1.23-.9s.47-.99,1.23-.99c1.33,0,8.16.1,8.16.1l2.94-3.98c15.91-22.71,28.36-27.91,30.25-27.91.95,0,.95,1.29,0,1.29-1.71,0-12.62,6.6-26.16,27.51-.66,1.09-1.33,2.19-1.99,3.19h1.02c2.46,0,6.34-.1,7.86-.2.85,0,1.71-.1,2.65-.1,11.74-16.83,28.6-32.76,40.16-32.76h0Z"/>
    <path class="cls-1" d="M105.25,126.37c3.41,0,13.83-9.56,19.7-18.22h1.7c-6.53,9.66-17.33,19.62-21.31,19.62-1.61,0-2.75-1.49-2.75-3.58,0-1.49.66-3.29,1.99-5.78-5.3,5.68-10.32,9.56-12.5,9.56-3.22,0-3.6-4.38-3.6-5.78,0-10.06,12.6-27.89,24.34-27.89,2.75,0,4.36,1.59,4.36,4.28,0,.6-.09,1.39-.38,2.19l5.21-7.27c0,2.19,2.94,1.59,4.64-.6h1.23c-3.6,5.48-8.24,11.65-12.03,17.13-5.78,8.07-10.7,14.64-10.7,16.23q0,.1.09.1h0ZM92.09,126.57c4.55,0,23.77-20.81,23.77-27.98,0-1.79-.76-2.59-2.37-2.59-2.08,0-5.02,1.59-7.39,4.08-3.22,3.29-6.82,8.17-9.66,13.25-3.03,5.28-4.92,9.96-4.92,12.35,0,.7.19.9.57.9h0Z"/>
    <path class="cls-1" d="M149.01,108.14c-7.01,10.46-16.29,19.62-19.89,19.62-2.27,0-3.98-2.29-3.98-5.18,0-3.09,1.8-7.27,5.4-12.75,4.83-7.17,10.7-12.25,10.7-13.15q0-.1.09-.1h-.28c-.66,0-3.22,1.09-7.39,1.19-1.33,2.29-4.45,6.97-7.77,11.35h-1.61c5.3-7.27,6.91-9.86,8.33-12.15.85-2.29.28-3.09.28-5.38,0-2.69,3.41-2.59,3.41,0,0,1.59-1.04,3.58-1.8,4.78,3.69-.3,6.91-1.89,9.09-1.89,3.13,0,3.32,2.79.57,6.57-5.02,6.77-15.25,17.63-15.25,24.4,0,.6.1.8.38.8,2.75,0,11.74-8.96,18-18.12h1.71Z"/>
    <path class="cls-1" d="M158.67,126.37c3.13,0,12.03-8.66,18.56-18.22h1.71c-6.16,9.06-16.1,19.62-20.17,19.62-1.61,0-2.75-1.49-2.75-3.59,0-1.3.47-2.89,1.61-4.98-5.11,5.28-9.66,8.76-11.74,8.76-3.22,0-3.6-4.38-3.6-5.78,0-10.06,12.6-27.89,24.34-27.89,2.75,0,4.36,1.59,4.36,4.28,0,.3,0,.7-.09,1,6.06-8.46,15.82-22.31,18.66-26.39.19,1.99,3.5.6,5.4-1.89l.76.6c-3.5,5.38-22.73,32.86-26.42,38.14-5.78,8.07-10.7,14.64-10.7,16.23q0,.1.1.1h0ZM161.6,112.63c1.52-2.09,3.03-4.28,4.64-6.47.28-.4.66-1,1.23-1.69,1.42-2.39,2.18-4.48,2.18-5.88,0-1.79-.76-2.59-2.37-2.59-2.08,0-5.02,1.59-7.39,4.08-3.22,3.29-6.82,8.17-9.66,13.25-3.03,5.28-4.92,9.96-4.92,12.35,0,.7.19.9.57.9,2.37,0,9.66-6.47,15.72-13.94Z"/>
    <path class="cls-1" d="M185.27,126.27c5.21-1,13.64-9.86,19.23-18.12h1.7c-6.16,9.06-16.01,19.62-21.78,19.62h-.19l-.47.6c-10.7,14.14-20.55,26.39-27.28,26.39-8.81,0,8.24-23.8,23.01-27.78l4.55-6.37c-4.55,4.48-8.43,7.37-10.42,7.37-3.22,0-4.45-3.29-3.31-7.77,1.99-7.37,13.16-19.92,17.81-26.39-.76,2.39,2.94,1.49,4.55-.4l.76.6c-5.49,7.87-20.36,25.89-20.36,31.67,0,.7.19.9.57.9,2.65,0,10.99-7.67,17.52-16.03,3.5-5.08,7.39-10.76,11.55-17.03.09,2.29,2.94,1.59,4.74-.7l.76.6c-2.94,4.58-12.6,19.02-22.92,32.86h0ZM177.98,128.86c-13.54,4.88-25.76,24.3-22.26,24.3,2.75,0,11.08-9.26,22.26-24.3Z"/>
  </g>
</svg>